# xmcd
#
# Track frame offsets:
#	150
#	27032
#	43242
#	62410
#	79932
#	102737
#	126762
#	148300
#	172627
#	191017
#	208137
#	230907
#	251982
#	269160
#	305165
#
# Disc length: 4433 seconds
#
# Revision: 1
# Processed by: cddbd v1.5PL3 Copyright (c) Steve Scherf et al.
# Submitted via: CDex 1.50Beta5
#
DISCID=ed114f0f
DTITLE=Craig David - SLICKER THAN YOUR AVERAGE
DYEAR=2002
DGENRE=R&B
TTITLE0=Slicker Than Your Average
TTITLE1=What's Your Flava?
TTITLE2=Fast Cars
TTITLE3=Hidden Adenda
TTITLE4=Eenie Meenie
TTITLE5=You Don't Miss Your Water
TTITLE6=Rise and Fall (featuring STING)
TTITLE7=Personal
TTITLE8=Hands Up In The Air
TTITLE9=2 Steps Back
TTITLE10=Spanish
TTITLE11=What's Changed
TTITLE12=World Filled With Love
TTITLE13=Four Times A Lady
TTITLE14=データ トラック
EXTD=
EXTT0=
EXTT1=
EXTT2=
EXTT3=
EXTT4=
EXTT5=
EXTT6=
EXTT7=
EXTT8=
EXTT9=
EXTT10=
EXTT11=
EXTT12=
EXTT13=
EXTT14=
PLAYORDER=
